<svg width="512" height="512" viewBox="0 0 512 512" fill="none" xmlns="http://www.w3.org/2000/svg">
<g clip-path="url(#clip0_16_8)">
<path d="M356.421 230C323.385 230 318.813 262.893 318.813 262.893H389C389 262.893 389.457 230 356.421 230ZM197.185 262.893H135V320H194.099C203.015 319.772 219.705 317.259 219.705 292.246C219.705 262.551 197.185 262.893 197.185 262.893Z" fill="white"/>
<path d="M256 0C114.629 0 0 114.629 0 256C0 397.371 114.629 512 256 512C397.371 512 512 397.371 512 256C512 114.629 397.371 0 256 0ZM309.943 157.257H398.057V183.543H309.943V157.257ZM265.371 295.314C265.371 360.457 197.486 358.4 197.486 358.4H86.4V144.686H197.486C231.314 144.686 257.943 163.314 257.943 201.6C257.943 239.886 225.371 242.286 225.371 242.286C268.343 242.286 265.371 295.314 265.371 295.314ZM430.171 291.771H319.429C319.429 331.429 357.029 328.914 357.029 328.914C392.571 328.914 391.314 305.943 391.314 305.943H428.914C428.914 366.971 355.771 362.743 355.771 362.743C268.114 362.743 273.714 281.029 273.714 281.029C273.714 281.029 273.6 198.971 355.771 198.971C442.286 199.086 430.171 291.771 430.171 291.771Z" fill="white"/>
<path d="M213 204.866C213 183 197.769 183 197.769 183H135V230H193.846C204 230 213 226.731 213 204.866Z" fill="white"/>
</g>
<defs>
<clipPath id="clip0_16_8">
<rect width="512" height="512" fill="white"/>
</clipPath>
</defs>
</svg>
