<svg width="512" height="512" viewBox="0 0 512 512" fill="none" xmlns="http://www.w3.org/2000/svg">
<path d="M428.258 85.7643L395.502 111.346L256.032 214.951L116.562 110.323L83.8057 84.741C76.0889 78.3595 66.6688 74.3815 56.7124 73.2996C46.756 72.2178 36.7009 74.0797 27.7927 78.6547C18.8846 83.2298 11.5149 90.3168 6.59666 99.0379C1.67845 107.759 -0.572136 117.731 0.123716 127.718V424.209C0.123716 433.436 3.7905 442.285 10.3174 448.81C16.8443 455.335 25.6967 459 34.9272 459H116.562V261.51L256.032 366.139L395.502 261.51V459H477.136C486.367 459 495.219 455.335 501.746 448.81C508.273 442.285 511.94 433.436 511.94 424.209V127.718C512.42 117.817 510.013 107.99 505.011 99.4305C500.009 90.8714 492.627 83.9492 483.763 79.5052C474.899 75.0613 464.935 73.2871 455.081 74.3982C445.227 75.5094 435.909 79.4581 428.258 85.7643Z" fill="white"/>
</svg>
