<?xml version="1.0" encoding="utf-8"?>
<!-- Generator: Adobe Illustrator 27.0.0, SVG Export Plug-In . SVG Version: 6.00 Build 0)  -->
<svg version="1.1" id="Layer_1" xmlns="http://www.w3.org/2000/svg" xmlns:xlink="http://www.w3.org/1999/xlink" x="0px" y="0px"
	 viewBox="0 0 512 512" style="enable-background:new 0 0 512 512;" xml:space="preserve">
<style type="text/css">
	.st0{fill:#FFFFFF;}
</style>
<path class="st0" d="M256,0C114.6,0,0,114.6,0,256s114.6,256,256,256s256-114.6,256-256S397.4,0,256,0z M395.2,190.8v161.3
	c0,5-2,9.8-5.5,13.4s-8.4,5.5-13.4,5.5h-44.4V263.6L256,320.5l-75.9-56.9V371h-44.4c-5,0-9.8-2-13.4-5.5s-5.5-8.4-5.5-13.4V190.8
	c-0.4-5.4,0.8-10.9,3.5-15.6s6.7-8.6,11.5-11.1c4.8-2.5,10.3-3.5,15.7-2.9c5.4,0.6,10.5,2.8,14.7,6.2l17.8,13.9l75.9,56.9l75.9-56.4
	l17.8-13.9c4.2-3.4,9.2-5.6,14.6-6.2c5.4-0.6,10.8,0.4,15.6,2.8c4.8,2.4,8.8,6.2,11.6,10.8C394.2,180,395.5,185.4,395.2,190.8z"/>
</svg>
