<?xml version="1.0" encoding="utf-8"?>
<!-- Generator: Adobe Illustrator 27.0.0, SVG Export Plug-In . SVG Version: 6.00 Build 0)  -->
<svg version="1.1" id="Camada_1" xmlns="http://www.w3.org/2000/svg" xmlns:xlink="http://www.w3.org/1999/xlink" x="0px" y="0px"
	 viewBox="0 0 800 800" style="enable-background:new 0 0 800 800;" xml:space="preserve">
<style type="text/css">
	.st0{fill:#FFFFFF;}
</style>
<g id="SVGRepo_bgCarrier">
</g>
<g id="SVGRepo_tracerCarrier">
</g>
<g>
	
		<ellipse transform="matrix(0.7071 -0.7071 0.7071 0.7071 -166.9426 400.2955)" class="st0" cx="399.7" cy="401.7" rx="73.9" ry="73.9"/>
	<path class="st0" d="M491.1,211.2H306.4c-54.4,0-97.2,44.7-97.2,97.2V493c0,54.4,44.7,97.2,97.2,97.2h184.6
		c54.4,0,97.2-44.7,97.2-97.2V308.4C588.2,254,543.5,211.2,491.1,211.2z M399.7,516.3c-62.2,0-114.7-52.5-114.7-114.7
		S335.6,287,399.7,287s114.7,52.5,114.7,114.7S461.9,516.3,399.7,516.3z M522.2,306.4c-15.5,0-27.2-11.7-27.2-27.2
		s11.7-27.2,27.2-27.2c15.5,0,27.2,11.7,27.2,27.2S537.7,306.4,522.2,306.4z"/>
	<path class="st0" d="M400,2.5C179.8,2.5,1.2,181,1.2,401.2S179.8,800,400,800s398.8-178.5,398.8-398.8S620.2,2.5,400,2.5z
		 M631,306.4v184.6c0,77.7-62.2,139.9-139.9,139.9H306.4c-77.7,0-139.9-62.2-139.9-139.9V306.4c0-77.7,62.2-139.9,141.9-139.9H493
		C570.8,166.5,632.9,228.7,631,306.4z"/>
</g>
</svg>
