<?xml version="1.0" encoding="utf-8"?>
<!-- Generator: Adobe Illustrator 27.0.0, SVG Export Plug-In . SVG Version: 6.00 Build 0)  -->
<svg version="1.1" id="Camada_1" xmlns="http://www.w3.org/2000/svg" xmlns:xlink="http://www.w3.org/1999/xlink" x="0px" y="0px"
	 viewBox="0 0 800 800" style="enable-background:new 0 0 800 800;" xml:space="preserve">
<style type="text/css">
	.st0{fill:#FFFFFF;}
</style>
<g id="SVGRepo_bgCarrier">
</g>
<g id="SVGRepo_tracerCarrier">
</g>
<g>
	<path class="st0" d="M517.5,157.5H280c-70,0-125,57.5-125,125V520c0,70,57.5,125,125,125h237.5c70,0,125-57.5,125-125V282.5
		C642.5,212.5,585,157.5,517.5,157.5z M400,550c-80,0-147.5-67.5-147.5-147.5S317.5,255,400,255s147.5,67.5,147.5,147.5
		S480,550,400,550z M557.5,280c-20,0-35-15-35-35s15-35,35-35s35,15,35,35C592.5,265,577.5,280,557.5,280z"/>
	<circle class="st0" cx="400" cy="402.5" r="95"/>
	<path class="st0" d="M400,2.5C179.8,2.5,1.2,181,1.2,401.2S179.8,800,400,800s398.8-178.5,398.8-398.8S620.2,2.5,400,2.5z
		 M697.5,517.5c0,100-80,180-180,180H280c-100,0-180-80-180-180V280c0-100,80-180,182.5-180H520c100,0,180,80,177.5,180V517.5z"/>
</g>
</svg>
