<svg width="512" height="512" viewBox="0 0 512 512" fill="none" xmlns="http://www.w3.org/2000/svg">
<g clip-path="url(#clip0_16_12)">
<path d="M256 0C114.613 0 0 114.613 0 256C0 397.387 114.613 512 256 512C397.387 512 512 397.387 512 256C512 114.613 397.387 0 256 0ZM193.333 362.107H141.493V195.28H193.333V362.107ZM167.093 174.8C150.72 174.8 140.133 163.2 140.133 148.853C140.133 134.213 151.04 122.96 167.76 122.96C184.48 122.96 194.72 134.213 195.04 148.853C195.04 163.2 184.48 174.8 167.093 174.8ZM382.667 362.107H330.827V269.653C330.827 248.133 323.307 233.52 304.56 233.52C290.24 233.52 281.733 243.413 277.973 252.933C276.587 256.32 276.24 261.12 276.24 265.893V362.08H224.373V248.48C224.373 227.653 223.707 210.24 223.013 195.253H268.053L270.427 218.427H271.467C278.293 207.547 295.013 191.493 322.987 191.493C357.093 191.493 382.667 214.347 382.667 263.467V362.107Z" fill="white"/>
</g>
<defs>
<clipPath id="clip0_16_12">
<rect width="512" height="512" fill="white"/>
</clipPath>
</defs>
</svg>
